<svg xmlns="http://www.w3.org/2000/svg" viewBox="0 0 161.65678 93.02344"><defs><style>.cls-1{fill:none;}.cls-2{fill:#fff;}.cls-3{fill:#006e99;}</style></defs><g id="Layer_2" data-name="Layer 2"><g id="Layer_1-2" data-name="Layer 1"><path class="cls-1" d="M96.51528,16.57176l-38.85,13.85v35.6l38.85,13.77,15.46008-15.77v-31.6Zm-34.86,46.24v-29.18l33.54-12.67-12.82007,13.07v28.35l12.83008,13.03Z"/><path d="M114.83523,29.62175l-15.46-15.84a4.03682,4.03682,0,0,0-3.73-1.12l-38.85,13.85a4.00294,4.00294,0,0,0-3.14,3.91v35.6a4.00163,4.00163,0,0,0,3.15,3.91l38.85,13.76a3.98838,3.98838,0,0,0,3.71-1.1l15.46-15.75995a3.99827,3.99827,0,0,0,1.15014-2.81006v-31.6A4.00829,4.00829,0,0,0,114.83523,29.62175Zm-53.17993,33.19v-29.18l33.54-12.67-12.82007,13.07v28.35l12.83008,13.03Z"/><polygon class="cls-2" points="95.205 75.412 61.655 62.812 61.655 33.632 95.195 20.962 82.375 34.032 82.375 62.382 95.205 75.412"/><path class="cls-3" d="M99.33809,24.73332,88.34617,35.72522a4.11963,4.11963,0,0,0,0,5.82952l8.88669,8.88669a2.97824,2.97824,0,0,0,4.21013-.00136l8.88531-8.88533a4.11966,4.11966,0,0,0,0-5.82952L99.33809,24.73332Z"/><path class="cls-2" d="M109.1496,38.64121a1.73258,1.73258,0,0,1-.51,1.23l-8.87989,8.88a.606.606,0,0,1-.42.17.59033.59033,0,0,1-.42-.17l-8.8899-8.88a1.73816,1.73816,0,0,1,0-2.46l9.30994-9.3,9.29993,9.3A1.73269,1.73269,0,0,1,109.1496,38.64121Z"/><path class="cls-3" d="M112.44579,56.93,101.168,68.2078a2.51539,2.51539,0,0,1-3.57121,0L86.319,56.93a1.072,1.072,0,0,1-.00642-1.51311l6.10376-6.10371,3.225,3.225a5.23955,5.23955,0,0,0,7.39243,0l3.26988-3.26985,6.14219,6.1486A1.0604,1.0604,0,0,1,112.44579,56.93Z"/><path d="M57.67,32.27585l-4.01.47-35.16992,4.07-6.90014.8V58.74582l6.82006.96,35.25,4.95,4.01.56.78.11v-33.14Zm-6.22,25-32.8601-4.62,32.8601-12.61Z"/><polygon class="cls-2" points="51.45 40.046 51.45 57.276 18.59 52.656 51.45 40.046"/><path d="M142.84328,0l3.11621,4.292-20.416,14.8208-3.11523-4.29248Z"/><path d="M143.96437,14.30322l2.38282,4.73828-16.34083,8.22022-2.38378-4.73828Zm3.15918-1.28515a2.88,2.88,0,0,1,3.7666-1.89453,3.37088,3.37088,0,0,1,1.82911,1.74414,3.45114,3.45114,0,0,1,.33984,2.49316,2.61692,2.61692,0,0,1-1.40918,1.73682,2.88887,2.88887,0,0,1-2.37207.165,3.323,3.323,0,0,1-1.84375-1.73633A3.36136,3.36136,0,0,1,147.12355,13.01807Z"/><path d="M155.57863,23.40869l1.585,5.06152L133.0884,36.00977l-1.585-5.062Z"/><path d="M158.95168,36.37744l.74414,5.25147-24.97852,3.5415-.74414-5.25146Z"/><path d="M153.24465,49.51758l-.10547,5.30322-18.28907-.36328.10547-5.30273Zm3.39355.33935a2.8786,2.8786,0,0,1,4.21484.084,3.36115,3.36115,0,0,1,.80274,2.39648,3.44711,3.44711,0,0,1-.86328,2.36328,2.613,2.613,0,0,1-2.05762.877,2.88641,2.88641,0,0,1-2.17383-.96094,3.3276,3.3276,0,0,1-.82031-2.397A3.36344,3.36344,0,0,1,156.6382,49.85693Z"/><path d="M159.272,62.97754l-.956,5.21728-24.81543-4.54394.95605-5.2168Z"/><path d="M156.22316,76.0083l-1.78711,4.99365L130.6841,72.49951l1.78711-4.99365Z"/><path d="M151.09621,88.38525,148.523,93.02344,126.46242,80.78516l2.57324-4.63819Z"/><path d="M18.49011,36.81583a1.43622,1.43622,0,0,0-1.34009-.93H7.46008A7.46007,7.46007,0,0,0,0,43.34586v9.66a7.46007,7.46007,0,0,0,7.46008,7.46H17.15a1.4063,1.4063,0,0,0,1.26-.76,1.30421,1.30421,0,0,0,.17994-.68v-21.7A1.25756,1.25756,0,0,0,18.49011,36.81583ZM7,53.00583v-9.66a.45885.45885,0,0,1,.46008-.46H11.59v10.58H7.46008A.45266.45266,0,0,1,7,53.00583Z"/><path class="cls-2" d="M11.59,42.88584v10.58H7.46008A.45266.45266,0,0,1,7,53.00583v-9.66a.45885.45885,0,0,1,.46008-.46Z"/></g></g></svg>