<svg xmlns="http://www.w3.org/2000/svg" viewBox="0 0 167.11148 122.19"><defs><style>.cls-1{fill:#fff;}.cls-2{fill:#006e99;}.cls-3{fill:none;}</style></defs><g id="Layer_2" data-name="Layer 2"><g id="Layer_1-2" data-name="Layer 1"><polygon class="cls-1" points="100.156 22.673 64.548 22.673 50.785 85.524 66.548 100.987 98.156 100.987 114.002 85.524 100.156 22.673"/><path d="M98.15639,104.98669H66.548a3.99814,3.99814,0,0,1-2.80078-1.14453l-15.7627-15.4624a3.9978,3.9978,0,0,1-1.10644-3.71094L60.64076,21.81726A3.999,3.999,0,0,1,64.548,18.67273h35.6084a3.99965,3.99965,0,0,1,3.90625,3.13965l13.8457,62.85156a3.99874,3.99874,0,0,1-1.11231,3.72314l-15.8457,15.46241A4.001,4.001,0,0,1,98.15639,104.98669Zm-29.97364-8H96.52846l13.08886-12.77294-12.67578-57.541H67.76674L55.16615,84.21814Z"/><path d="M109.46038,110.6l-6.81982-8.39-2.54-3.12-.51-.63a3.99036,3.99036,0,0,0-3.06006-1.47H68.59051a3.98994,3.98994,0,0,0-3.11011,1.48l-.65991.82-2.53,3.12-6.47,8.00995a7.22321,7.22321,0,0,0,5.61,11.77h42.5199a7.1009,7.1009,0,0,0,5.51-11.59Zm-46.3999,3.59,7.43994-7.15,31.57007,7.15Z"/><polygon class="cls-1" points="102.07 114.19 63.06 114.19 70.5 107.04 102.07 114.19"/><path class="cls-2" d="M82.53158,44.73413l9.30361,9.305a1.73323,1.73323,0,0,1-.00071,2.4539l-8.88531,8.88532a.59182.59182,0,0,1-.83522.00137l-8.88742-8.88741a1.73323,1.73323,0,0,1,.00073-2.4539l9.30432-9.30432Zm.00014-3.375L71.5398,52.351a4.11963,4.11963,0,0,0,0,5.82952l8.88669,8.88669a2.97824,2.97824,0,0,0,4.21013-.00136l8.88531-8.88533a4.11965,4.11965,0,0,0,0-5.82952L82.53172,41.35909Z"/><path class="cls-2" d="M95.63942,73.55574,84.36162,84.83358a2.51538,2.51538,0,0,1-3.5712,0L69.51258,73.55574a1.072,1.072,0,0,1-.00642-1.5131l6.10376-6.10371,3.225,3.225a5.23955,5.23955,0,0,0,7.39243,0L89.49724,65.894l6.14218,6.1486A1.06039,1.06039,0,0,1,95.63942,73.55574Z"/><line class="cls-3" x1="113.10921" y1="20.43288" x2="51.67834" y2="20.43288"/><rect x="47.67787" y="16.43298" width="69.43164" height="8"/><path d="M88.70037,0H76.0805a9.76247,9.76247,0,0,0-9.75,9.75V20.3a.56938.56938,0,0,0,.01.13,3.87882,3.87882,0,0,0,.77,2.24,3.97648,3.97648,0,0,0,3.22,1.63H94.46038a3.99063,3.99063,0,0,0,3.22-1.63,3.87706,3.87706,0,0,0,.77-2.24.56938.56938,0,0,0,.01-.13V9.75A9.7646,9.7646,0,0,0,88.70037,0ZM74.3305,9.75A1.75844,1.75844,0,0,1,76.0805,8H88.70037a1.7604,1.7604,0,0,1,1.76,1.75V16.3H74.3305Z"/><path d="M11.66908,101.97107l-2.542-4.65527,22.1416-12.09131,2.543,4.65527Z"/><path d="M5.841,89.93542,4.087,84.93005l23.80859-8.34179,1.75391,5.00537Z"/><path d="M5.47377,76.2157a2.758,2.758,0,0,1-1.917,1.26953,2.75755,2.75755,0,0,1-2.23536-.53857,3.3637,3.3637,0,0,1-1.25-2.19629A3.44981,3.44981,0,0,1,.463,72.26453a2.61684,2.61684,0,0,1,1.84961-1.25782,2.88892,2.88892,0,0,1,2.31933.52393,3.32855,3.32855,0,0,1,1.2666,2.19385A3.36332,3.36332,0,0,1,5.47377,76.2157Zm3.39551-.32178-.91993-5.22363L25.965,67.49841l.91894,5.22364Z"/><path d="M.36439,63.8446.29408,58.54138l25.22559-.33252L25.59,63.51257Z"/><path d="M.83217,50.48328l.78125-5.2461L26.56654,48.952l-.78125,5.24609Z"/><path d="M6.88685,38.20789a2.75276,2.75276,0,0,1-2.28711.231,2.75854,2.75854,0,0,1-1.72753-1.51709,3.3638,3.3638,0,0,1-.083-2.52588A3.44374,3.44374,0,0,1,4.29213,32.3783a2.61567,2.61567,0,0,1,2.22265-.252,2.88738,2.88738,0,0,1,1.8086,1.54346A3.32552,3.32552,0,0,1,8.423,36.20105,3.36424,3.36424,0,0,1,6.88685,38.20789Zm3.15528,1.29638,1.61816-5.05078,17.41992,5.58106-1.61816,5.05127Z"/><path d="M8.15834,24.82166l2.418-4.7212,22.456,11.49659-2.418,4.72119Z"/><path d="M17.82631,15.12a2.88013,2.88013,0,0,1-3.39453-2.501,3.36735,3.36735,0,0,1,.72754-2.42041A3.45122,3.45122,0,0,1,17.22865,8.767a2.6144,2.6144,0,0,1,2.18652.47119,2.88315,2.88315,0,0,1,1.22071,2.03955,3.32456,3.32456,0,0,1-.71387,2.43066A3.36137,3.36137,0,0,1,17.82631,15.12Zm2.57617,2.23583,3.14648-4.27L38.27455,23.93689l-3.14648,4.27Z"/><path d="M148.298,9.40857l3.11621,4.292-20.416,14.8208L127.883,24.22888Z"/><path d="M149.41908,23.71179l2.38281,4.73828-16.34082,8.22022L133.07728,31.932Zm3.15918-1.28515a2.88,2.88,0,0,1,3.7666-1.89454,3.37085,3.37085,0,0,1,1.8291,1.74415,3.4512,3.4512,0,0,1,.33985,2.49316,2.617,2.617,0,0,1-1.40918,1.73682,2.88883,2.88883,0,0,1-2.37207.165,3.32294,3.32294,0,0,1-1.84375-1.73632A3.36136,3.36136,0,0,1,152.57826,22.42664Z"/><path d="M161.03334,32.81726l1.585,5.06152-24.0752,7.53955-1.585-5.062Z"/><path d="M164.40639,45.786l.74414,5.25147L140.172,54.579l-.74414-5.25147Z"/><path d="M158.69935,58.92615l-.10546,5.30322-18.28907-.36328.10547-5.30274Zm3.39356.33935a2.8786,2.8786,0,0,1,4.21484.084,3.36115,3.36115,0,0,1,.80274,2.39648,3.44711,3.44711,0,0,1-.86328,2.36328,2.613,2.613,0,0,1-2.05762.877,2.88641,2.88641,0,0,1-2.17383-.96094,3.32751,3.32751,0,0,1-.82031-2.397A3.36344,3.36344,0,0,1,162.09291,59.2655Z"/><path d="M164.7267,72.38611l-.95606,5.21728-24.81543-4.54394.95606-5.2168Z"/><path d="M161.67787,85.41687l-1.78711,4.99365-23.75195-8.50244,1.78711-4.99365Z"/><path d="M156.55092,97.79382l-2.57325,4.63819L131.91713,90.19373l2.57324-4.63819Z"/></g></g></svg>