<svg xmlns="http://www.w3.org/2000/svg" viewBox="0 0 342.21936 109.04102"><defs><style>.cls-1{fill:#fff;}</style></defs><g id="Layer_2" data-name="Layer 2"><g id="Layer_1-2" data-name="Layer 1"><path class="cls-1" d="M98.66119,26.06575h13.08553l.00161,46.90377h22.84021V83.94594H98.6628Z"/><path class="cls-1" d="M135.71222,57.12381V26.06575h13.08554l.00161,32.39715c.00161,11.33169,3.5736,15.25092,10.04885,15.25092,6.50741,0,10.25945-3.91923,10.25784-15.25092l-.0016-32.39715h12.61612V57.12381c.00161,19.43379-7.90276,27.88794-22.87236,27.88794C143.8722,85.01175,135.71383,76.5576,135.71222,57.12381Z"/><path class="cls-1" d="M186.20889,26.06575H200.484l9.39619,25.71614c1.15905,3.41606,2.17342,7.1247,3.33086,10.68705h.35367c1.15744-3.56235,2.14287-7.271,3.30514-10.68705l9.09075-25.71614h14.28156l.00161,57.88019H228.32213l-.0016-21.24069c.0016-5.64414,1.05777-14.06614,1.6815-19.66688h-.36009L224.89321,56.738l-8.18409,22.17307h-7.25974L201.24922,56.738l-4.62013-13.69962h-.35366c.6173,5.60074,1.67025,14.02274,1.66865,19.66688l.0016,21.24069H186.2105Z"/><path class="cls-1" d="M243.78686,56.84248h21.81137l.00161,9.24829H243.78847Z"/><path class="cls-1" d="M269.21845,25.21214h11.46512l1.06742,7.90919h.38581c5.239-5.09435,11.21434-9.34314,19.24571-9.34314,12.59041,0,18.08826,8.54579,18.08826,23.36106V83.94594h-13.9922L305.477,48.93811c0-9.58748-2.74571-13.1627-9.02162-13.1627-5.1249,0-8.47345,2.503-13.23665,7.218l-.00161,40.95258H269.21845Z"/><path class="cls-1" d="M321.215,11.48367c0-6.52027,4.7423-11.04394,10.50058-11.04072,5.7615,0,10.50058,4.52045,10.5038,11.0375s-4.7423,10.96677-10.5038,10.96677S321.215,17.9975,321.215,11.48367Zm18.78594-.00322c0-5.27923-3.59128-9.012-8.28536-9.012-4.68764,0-8.28215,3.736-8.28215,9.00877,0,5.28565,3.59451,8.94446,8.28215,8.94446C336.40964,20.4217,340.00092,16.75968,340.00092,11.48045ZM327.6613,5.65465l4.26-.00321c2.32775,0,4.37256.95167,4.36613,3.62022a3.26668,3.26668,0,0,1-2.1059,3.0833l2.58174,4.62656h-2.55281l-1.98694-3.90315h-2.257v3.90315h-2.302Zm3.73275,5.62325c1.49825,0,2.43706-.6173,2.43706-1.85191,0-1.11886-.627-1.88728-2.29559-1.88406h-1.569v3.736Z"/><path class="cls-1" d="M45.0514,109.041a12.62678,12.62678,0,0,1-8.98742-3.72243L2.87334,72.128a9.81967,9.81967,0,0,1,0-13.87049A5.23806,5.23806,0,0,0,4.4219,54.52209a5.23625,5.23625,0,0,0-1.54667-3.73316A9.80669,9.80669,0,0,1,2.86987,36.9197L36.064,3.72275a12.71,12.71,0,0,1,17.97485,0L87.23262,36.92a9.80364,9.80364,0,0,1,0,13.867,5.27979,5.27979,0,0,0-.00189,7.46853A9.80747,9.80747,0,0,1,87.23231,72.128L54.03852,105.31859A12.62555,12.62555,0,0,1,45.0514,109.041Zm0-104.5159a8.1312,8.1312,0,0,0-5.78739,2.397L6.0699,40.11941a5.28094,5.28094,0,0,0,.00347,7.4679A9.72973,9.72973,0,0,1,8.947,54.52209a9.73332,9.73332,0,0,1-2.87554,6.9373,5.28724,5.28724,0,0,0,.00189,7.46853L39.264,102.11856a8.19272,8.19272,0,0,0,11.57479,0L84.03291,68.92792a5.28209,5.28209,0,0,0,0-7.47043,9.80592,9.80592,0,0,1,.00158-13.87239,5.27788,5.27788,0,0,0-.00064-7.46442L50.8388,6.92215A8.13122,8.13122,0,0,0,45.0514,4.52512Z"/><path class="cls-1" d="M45.0044,18.97864,55.08525,29.061A1.878,1.878,0,0,1,55.08448,31.72l-9.62761,9.62763a.64127.64127,0,0,1-.905.00148L34.922,31.71917a1.878,1.878,0,0,1,.00079-2.6589L45.0044,18.97864m.00015-3.657L33.09434,27.23184a4.4638,4.4638,0,0,0,0,6.31654l9.6291,9.62911A3.22706,3.22706,0,0,0,47.2853,43.176l9.62761-9.62763a4.46382,4.46382,0,0,0,0-6.31654L45.00455,15.32164Z"/><path class="cls-1" d="M74.28258,59.01013,52.27408,81.01168a10.20147,10.20147,0,0,1-14.44306,0L15.82248,59.01013a7.38809,7.38809,0,0,1,0-10.4346L29.97382,34.42424l5.45348,5.45347-6.60673,6.61368a4.10077,4.10077,0,0,0,0,5.79393l12.22,12.22a5.67722,5.67722,0,0,0,8.02392,0l12.22-12.22a4.1007,4.1007,0,0,0,0-5.79393l-6.65532-6.66231,5.45348-5.45348L74.28258,48.57553A7.388,7.388,0,0,1,74.28258,59.01013Z"/><path class="cls-1" d="M59.2073,50.20809l-12.22,12.22a2.72554,2.72554,0,0,1-3.86956,0l-12.22-12.22a1.16152,1.16152,0,0,1-.00695-1.63951l6.61368-6.61364,3.49443,3.49439a5.67728,5.67728,0,0,0,8.01,0l3.54306-3.543,6.65532,6.66227A1.149,1.149,0,0,1,59.2073,50.20809Z"/></g></g></svg>