<svg xmlns="http://www.w3.org/2000/svg" viewBox="0 0 139.38574 168.67773"><defs><style>.cls-1{fill:#fff;}</style></defs><g id="Layer_2" data-name="Layer 2"><g id="Layer_1-2" data-name="Layer 1"><path class="cls-1" d="M69.69092,168.67773a19.53263,19.53263,0,0,1-13.90283-5.7583L4.44482,111.57617a15.19026,15.19026,0,0,1,0-21.45654,8.10282,8.10282,0,0,0,2.39551-5.77832,8.10008,8.10008,0,0,0-2.39258-5.7749,15.17019,15.17019,0,0,1-.0083-21.45459l51.34864-51.353a19.66145,19.66145,0,0,1,27.80566,0L134.94189,57.1123a15.16546,15.16546,0,0,1,0,21.45118A8.16744,8.16744,0,0,0,134.939,90.1167a15.17135,15.17135,0,0,1,.00245,21.45947L83.59326,162.91943A19.53069,19.53069,0,0,1,69.69092,168.67773ZM69.69092,7a12.57833,12.57833,0,0,0-8.95264,3.708L9.38965,62.06152A8.16919,8.16919,0,0,0,9.395,73.61377a15.05113,15.05113,0,0,1,4.44531,10.72754A15.05666,15.05666,0,0,1,9.39209,95.07275,8.179,8.179,0,0,0,9.395,106.626l51.34326,51.34326a12.67346,12.67346,0,0,0,17.90527,0L129.99219,106.626a8.171,8.171,0,0,0,0-11.55616,15.169,15.169,0,0,1,.00244-21.45947,8.16447,8.16447,0,0,0-.001-11.54687L78.64355,10.708A12.57832,12.57832,0,0,0,69.69092,7Z"/><path class="cls-1" d="M69.61821,29.35844,85.21248,44.95511a2.90516,2.90516,0,0,1-.00119,4.11312L70.31815,63.9614a.992.992,0,0,1-1.4.00229L54.0215,49.067a2.90516,2.90516,0,0,1,.00122-4.11311L69.61821,29.35844m.00023-5.65709L51.19429,42.12548a6.90514,6.90514,0,0,0,0,9.77118L66.08975,66.79212a4.992,4.992,0,0,0,7.05683-.00229L88.03972,51.89666a6.90517,6.90517,0,0,0,0-9.77118L69.61844,23.70135Z"/><path class="cls-1" d="M114.90921,91.284,80.86382,125.31859a15.78088,15.78088,0,0,1-22.34226,0L24.47611,91.284a11.42878,11.42878,0,0,1,0-16.14149l21.891-21.89093,8.43609,8.4361L44.58312,71.91847a6.34355,6.34355,0,0,0,0,8.96274L63.48651,99.78453a8.78222,8.78222,0,0,0,12.41237,0L94.8022,80.88121a6.34344,6.34344,0,0,0,0-8.96274L84.507,61.6124l8.4361-8.43609,21.96616,21.96616A11.42867,11.42867,0,0,1,114.90921,91.284Z"/><path class="cls-1" d="M91.589,77.6679,72.68564,96.57129a4.21621,4.21621,0,0,1-5.9859,0L47.79636,77.6679a1.79675,1.79675,0,0,1-.01076-2.53619L58.01643,64.90094l5.4056,5.40553a8.7823,8.7823,0,0,0,12.39085,0l5.48084-5.48076L91.589,75.13171A1.77736,1.77736,0,0,1,91.589,77.6679Z"/></g></g></svg>